#!OML:ASF E:/inclinewalkrobotboard/Project1/Captureday1/Session1/subject1.ASF
:FULLY-SPECIFIED
:DEGREES
76
root 0 0 0 1.2581888905204885 -3.5916649014052533 1.8997712815157919
lowerback 12.042907738793746 0.8482625400000791 -0.10767211740759064
upperback -4.409474366567053 1.0653017986871645 -0.602461477167337
thorax -11.573037699041198 0.48724182400174265 -0.8027442676521277
lowerneck -5.9619489629800455 1.7282873878663916 4.69991140003283
upperneck 18.393727957144684 3.2871137020733103 -8.468642760268247
head 6.731556227802987 1.2127442115070544 -3.252904517893522
rclavicle -3.76584430452115E-16 -2.1118593748206147E-15
rhumerus 20.789809440086962 14.83357125172054 -47.29487401819367
rradius 72.87516089334807
rwrist 27.418035999685127
rhand -34.55805600478956 -57.651812441850154
rfingers 7.12502000000002
rthumb -7.751579613226811 -87.60808773338798
lclavicle -2.20095228477984E-15 4.176037738404606E-16
lhumerus 21.889842126364783 -13.05795404254736 44.45107667006609
lradius 70.73838014333637
lwrist -22.502730648146702
lhand -45.095779698858564 -70.84174726527851
lfingers 7.125020000000016
lthumb -17.85740583402153 -41.898568745128685
rfemur -25.61663387814014 -2.37105474928343 16.87653607753877
rtibia 54.521483586028026
rfoot -31.336944398446168 -17.85374199760208
rtoes -19.029751819848805
lfemur -27.991127296052056 2.833688551460504 -18.344142353446554
ltibia 54.78987451159698
lfoot -33.217578357318295 -3.533307364254361
ltoes -20.65080475222225
77
root 0 0 0 1.2582382534299943 -3.5918432768653132 1.8996540148142094
lowerback 12.042868621186058 0.8482878396607236 -0.1076195117098403
upperback -4.409499846706189 1.0653419112066427 -0.6024388858445949
thorax -11.573040269375154 0.4872612349017998 -0.8027596338566387
lowerneck -5.961894063186354 1.7283164719046809 4.699911926014786
upperneck 18.393739676294288 3.2871551721946997 -8.468675110638305
head 6.731548482035757 1.2127585502371856 -3.2529100416412513
rclavicle -3.7662376900152633E-16 -2.1120931031240046E-15
rhumerus 20.789736800216744 14.833348339385727 -47.294652181455334
rradius 72.87520780343431
rwrist 27.418232903641965
rhand -34.558115966277974 -57.65194328772791
rfingers 7.12502000000002
rthumb -7.751616283559736 -87.60827426818524
lclavicle -2.2025583066940152E-15 4.193116562371764E-16
lhumerus 21.890134613148902 -13.058182521694293 44.45090139762422
lradius 70.73869110627327
lwrist -22.502771878618077
lhand -45.095904023642824 -70.84223125672082
lfingers 7.125020000000016
lthumb -17.857509624866424 -41.899160378280385
rfemur -25.61538758075231 -2.371053250309955 16.87687387629709
rtibia 54.52063627324039
rfoot -31.338433888803728 -17.85295830976921
rtoes -19.03389724228812
lfemur -27.989248483773736 2.83212207603073 -18.342060457164276
ltibia 54.78515160564034
lfoot -33.21835835676095 -3.5324239728370213
ltoes -20.657276373897922
78
root 0 0 0 1.2581832661615908 -3.5918126016499965 1.8996100209544977
lowerback 12.042794275255428 0.8483003709197285 -0.10760743967593256
upperback -4.409497600788153 1.0653580911019807 -0.6024245360656116
thorax -11.57299681608292 0.487269389933344 -0.8027516814865521
lowerneck -5.96183644713748 1.728351439816502 4.699972983878574
upperneck 18.393801367547052 3.287208035435812 -8.468763387135722
head 6.7315572029884025 1.2127782303624173 -3.25294042289286
rclavicle -3.7779324717003277E-16 -2.1124761821015584E-15
rhumerus 20.789204821847107 14.832607559952189 -47.29413986941725
rradius 72.87480852893401
rwrist 27.418789170153346
rhand -34.55815233331172 -57.65215373363728
rfingers 7.12502000000002
rthumb -7.751659540377197 -87.60841592010416
lclavicle -2.203092149045243E-15 4.1912346381708676E-16
lhumerus 21.890046893397084 -13.057908316059853 44.450775209656946
lradius 70.73856638246909
lwrist -22.502933053032393
lhand -45.09592661940679 -70.84257719958947
lfingers 7.125020000000016
lthumb -17.857534442719373 -41.899533726125256
rfemur -25.61385651899039 -2.371272770017069 16.87672708108126
rtibia 54.52159489164616
rfoot -31.337299448119293 -17.85163947993457
rtoes -19.036073259452014
lfemur -27.987412470207584 2.8319868065616167 -18.34219318229786
ltibia 54.78548551254787
lfoot -33.21663750900069 -3.5341929366641183
ltoes -20.6590679351572
79
root 0 0 0 1.257652147519428 -3.591186340102679 1.8995514625924264
lowerback 12.04296392079506 0.8481602977925009 -0.10757672109031002
upperback -4.409418719286414 1.0652191976142462 -0.6023721087980004
thorax -11.5730159883774 0.48718624704525637 -0.8027394775310164
lowerneck -5.962159515853998 1.728177331121857 4.699926804722937
upperneck 18.393738638530497 3.2869449862240643 -8.468622041147354
head 6.731605901069825 1.2126611361067083 -3.2529309983625563
rclavicle -3.867454989142405E-16 -2.0995618384400952E-15
rhumerus 20.787403759303267 14.829756241441112 -47.294625564347164
rradius 72.87558348211692
rwrist 27.418514752364352
rhand -34.55933007660664 -57.65182777246261
rfingers 7.12502000000002
rthumb -7.752680961865673 -87.60701434365943
lclavicle -2.2363727626138196E-15 4.301234371169996E-16
lhumerus 21.890750577099766 -13.061191709984904 44.45246106515678
lradius 70.74027253051831
lwrist -22.50047646047922
lhand -45.09546509406309 -70.83703440127445
lfingers 7.125020000000016
lthumb -17.85693516972309 -41.8937993412341
rfemur -25.614694680812324 -2.3757946526723552 16.878743788479632
rtibia 54.52893897387425
rfoot -31.331956471819595 -17.85005472051978
rtoes -19.01579536288353
lfemur -27.994630484488724 2.8365477182834926 -18.34762666247918
ltibia 54.797351674324105
lfoot -33.2104507031498 -3.536243925435681
ltoes -20.6391489410733
80
root 0 0 0 1.2581908484444826 -3.5916713618251332 1.8997678948831198
lowerback 12.04290608826227 0.8482634206470547 -0.10767083576419301
upperback -4.409474859970073 1.0653031081086455 -0.6024607620045553
thorax -11.573037164349277 0.4872424828813573 -0.8027444537397752
lowerneck -5.961946910722335 1.7282882529200794 4.699911322218898
upperneck 18.393728467849666 3.2871150388103505 -8.468643791456952
head 6.731555992654684 1.2127447028481657 -3.252904656834656
rclavicle -3.7657031062880563E-16 -2.1118517925676687E-15
rhumerus 20.789828667649473 14.833598248818747 -47.29488963682377
rradius 72.87517570587922
rwrist 27.418018140825
rhand -34.55805636897906 -57.65181160240702
rfingers 7.12502000000002
rthumb -7.751579700638356 -87.60808877123024
lclavicle -2.200947241327697E-15 4.176066530505896E-16
lhumerus 21.889849057686554 -13.057968015654135 44.45107960356852
lradius 70.73838982505335
lwrist -22.502722889917514
lhand -45.09578082782367 -70.84173717716234
lfingers 7.125020000000016
lthumb -17.857406816496425 -41.898559500273436
rfemur -25.61660634710419 -2.371053098765704 16.876543082353148
rtibia 54.521463274991746
rfoot -31.336983735282907 -17.8537307627019
rtoes -19.02983993960665
lfemur -27.991116816862434 2.8336575593780666 -18.344095993854967
ltibia 54.789759651503005
lfoot -33.21760084886614 -3.533269771420105
ltoes -20.65090336530571
81
root 0 0 0 1.2582382112170882 -3.5918456069241196 1.8996524738313942
lowerback 12.042867322351336 0.8482883544707039 -0.10761907360830036
upperback -4.409500030814171 1.0653426161135067 -0.6024385492631584
thorax -11.573039706596905 0.4872615877467088 -0.8027596367194101
lowerneck -5.961892617547852 1.728317098371096 4.699912586742464
upperneck 18.39374024937446 3.287156112168552 -8.468676490935978
head 6.731548381459145 1.2127588925764723 -3.2529104729214113
rclavicle -3.766219542379235E-16 -2.112094279977438E-15
rhumerus 20.789738240522226 14.833349705061439 -47.29465159036692
rradius 72.87520894144413
rwrist 27.418233160027448
rhand -34.558116287324054 -57.65194501584806
rfingers 7.12502000000002
rthumb -7.751616568004824 -87.60827654947406
lclavicle -2.2025588567329013E-15 4.1930930289787534E-16
lhumerus 21.89013597227499 -13.058182880013112 44.4509000866492
lradius 70.73869230928292
lwrist -22.50277233275441
lhand -45.09590415136129 -70.8422319343914
lfingers 7.125020000000016
lthumb -17.85750972604646 -41.899161695809084
rfemur -25.615361363453765 -2.371055383014178 16.876874308262845
rtibia 54.5206412456593
rfoot -31.338431244829952 -17.852943388089155
rtoes -19.03394346196562
lfemur -27.989232653407658 2.832112157349039 -18.342049016664085
ltibia 54.785122570583994
lfoot -33.218353788037156 -3.5324269698983772
ltoes -20.657317544523835
